<svg width="49" height="49" viewBox="0 0 49 49" fill="none" xmlns="http://www.w3.org/2000/svg">
<g clip-path="url(#clip0_638_2)">
<path d="M41.7419 29.1078C43.2087 22.2623 43.9422 18.8397 42.1036 16.5654C40.2649 14.291 36.7646 14.291 29.7638 14.291H19.2367C12.2358 14.291 8.73558 14.291 6.89685 16.5654C5.05833 18.8397 5.7917 22.2623 7.25864 29.1078L8.13349 33.1911C9.12778 37.8308 9.62493 40.1508 11.3095 41.5126C12.9941 42.8744 15.3665 42.8744 20.1117 42.8744H28.8888C33.6339 42.8744 36.0065 42.8744 37.691 41.5126C39.3755 40.1508 39.8726 37.8308 40.8669 33.1911L41.7419 29.1078Z" fill="#4E2A07"/>
<path fill-rule="evenodd" clip-rule="evenodd" d="M19.0593 4.75574C18.3031 4.37754 17.3833 4.68414 17.005 5.44054L10.88 17.6905C10.5019 18.447 10.8084 19.3667 11.5648 19.7449C12.3212 20.1231 13.241 19.8165 13.6193 19.0601L19.7443 6.81013C20.1224 6.05373 19.8158 5.13394 19.0593 4.75574Z" fill="#4E2A07"/>
<path fill-rule="evenodd" clip-rule="evenodd" d="M29.9399 4.75574C30.6963 4.37754 31.616 4.68414 31.9942 5.44054L38.1192 17.6905C38.4975 18.447 38.1909 19.3667 37.4345 19.7449C36.6781 20.1231 35.7583 19.8165 35.3801 19.0601L29.2551 6.81013C28.8769 6.05373 29.1835 5.13394 29.9399 4.75574Z" fill="#4E2A07"/>
</g>
<defs>
<clipPath id="clip0_638_2">
<rect width="49" height="49" fill="white" transform="matrix(-1 0 0 1 49 0)"/>
</clipPath>
</defs>
</svg>
