<svg width="50" height="50" viewBox="0 0 50 50" fill="none" xmlns="http://www.w3.org/2000/svg">
<path d="M6.33853 29.2694C4.79445 22.0776 4.02241 18.4819 5.95783 16.0925C7.89325 13.7031 11.5779 13.7031 18.9472 13.7031H30.0286C37.398 13.7031 41.0825 13.7031 43.018 16.0925C44.9533 18.4819 44.1814 22.0776 42.6372 29.2694L41.7163 33.5593C40.6696 38.4336 40.1463 40.8709 38.3731 42.3016C36.5998 43.7323 34.1025 43.7323 29.1074 43.7323H19.8683C14.8734 43.7323 12.3759 43.7323 10.6027 42.3016C8.82948 40.8709 8.30619 38.4336 7.25961 33.5593L6.33853 29.2694Z" stroke="#4E2A07" stroke-width="3"/>
<path d="M15.8906 24.7812H33.0918" stroke="#4E2A07" stroke-width="3" stroke-linecap="round" stroke-linejoin="round"/>
<path d="M20.1172 31.0488H28.8635" stroke="#4E2A07" stroke-width="3" stroke-linecap="round" stroke-linejoin="round"/>
<path d="M37.1718 17.931L30.7578 5.39453" stroke="#4E2A07" stroke-width="3" stroke-linecap="round" stroke-linejoin="round"/>
<path d="M11.3711 17.931L18.2224 5.39453" stroke="#4E2A07" stroke-width="3" stroke-linecap="round" stroke-linejoin="round"/>
</svg>
