<svg width="133" height="133" viewBox="0 0 133 133" fill="none" xmlns="http://www.w3.org/2000/svg">
<g opacity="0.5" clip-path="url(#clip0_732_106)">
<path d="M105.913 9.30078H102.281V17.1689H105.913V9.30078Z" fill="#CCCCCC"/>
<path d="M108.41 14.748H99.7852V24.5835H108.41V14.748Z" fill="#E6E6E6"/>
<path d="M114.087 22.4648V41.0766H94.1133V22.4648H99.7876H108.413H114.087Z" fill="#CCCCCC"/>
<path d="M119.075 38.3535V122.082H109.091L89.1172 99.9902V99.9872V38.3535H94.1106H114.084H119.075Z" fill="#E6E6E6"/>
<path d="M105.703 43.6504H102.488V115.979H105.703V43.6504Z" fill="#4D4D4D"/>
<path d="M113.117 43.6484H109.902V115.978H113.117V43.6484Z" fill="#4D4D4D"/>
<path d="M98.2894 43.6484H95.0742V115.978H98.2894V43.6484Z" fill="#4D4D4D"/>
<path d="M103.039 26.7246H98.5V34.0918H103.039V26.7246Z" fill="#4D4D4D"/>
<path d="M109.696 26.7246H105.156V34.0918H109.696V26.7246Z" fill="#4D4D4D"/>
<path d="M32.9846 58.4082H13.9219V122.082H32.9846V58.4082Z" fill="#BCA2A2"/>
<path d="M53.2584 35.1263V122.081H45.393H29.6562V58.4076V17.2227H38.5354H53.2584V35.1263Z" fill="#E6E6E6"/>
<path d="M36.5574 21.1211H33.1328V118.185H36.5574V21.1211Z" fill="#4D4D4D"/>
<path d="M43.1668 21.1211H39.7422V118.185H43.1668V21.1211Z" fill="#4D4D4D"/>
<path d="M49.7761 21.1211H46.3516V118.185H49.7761V21.1211Z" fill="#4D4D4D"/>
<path d="M24.3293 68.3127C24.3293 69.5656 23.3125 70.5824 22.0596 70.5824H13.9219V66.043H22.0596C23.3125 66.043 24.3293 67.0598 24.3293 68.3127Z" fill="#4D4D4D"/>
<path d="M24.3293 110.985C24.3293 112.237 23.3125 113.254 22.0596 113.254H13.9219V108.715H22.0596C23.3125 108.715 24.3293 109.732 24.3293 110.985Z" fill="#4D4D4D"/>
<path d="M24.3293 102.449C24.3293 103.702 23.3125 104.719 22.0596 104.719H13.9219V100.18H22.0596C23.3125 100.18 24.3293 101.197 24.3293 102.449Z" fill="#4D4D4D"/>
<path d="M24.3293 76.8479C24.3293 78.1007 23.3125 79.1176 22.0596 79.1176H13.9219V74.5781H22.0596C23.3125 74.5781 24.3293 75.595 24.3293 76.8479Z" fill="#4D4D4D"/>
<path d="M24.3293 93.9162C24.3293 95.1691 23.3125 96.1859 22.0596 96.1859H13.9219V91.6465H22.0596C23.3125 91.6465 24.3293 92.6633 24.3293 93.9162Z" fill="#4D4D4D"/>
<path d="M24.3293 85.3811C24.3293 86.6339 23.3125 87.6508 22.0596 87.6508H13.9219V83.1113H22.0596C23.3125 83.1113 24.3293 84.1282 24.3293 85.3811Z" fill="#4D4D4D"/>
<path d="M68.9928 99.987V99.99L66.1965 122.082H53.256H45.3906V49.9531H53.256H68.9928V99.987Z" fill="#CCCCCC"/>
<path d="M58.8011 55.7539H55.5859V115.372H58.8011V55.7539Z" fill="#4D4D4D"/>
<path d="M66.2151 55.7539H63V115.373H66.2151V55.7539Z" fill="#4D4D4D"/>
<path d="M51.387 55.7539H48.1719V115.373H51.387V55.7539Z" fill="#4D4D4D"/>
<path d="M109.092 99.9902V122.082H89.1183H68.9934H61.125V99.9902H68.9934H89.1183H109.092Z" fill="#BCA2A2"/>
<path d="M104.024 103.52H66.1953V106.261H104.024V103.52Z" fill="#4D4D4D"/>
<path d="M104.024 109.059H66.1953V111.8H104.024V109.059Z" fill="#4D4D4D"/>
<path d="M104.024 114.598H66.1953V117.339H104.024V114.598Z" fill="#4D4D4D"/>
<path d="M133 128.285H0C0 126.863 0.384341 125.528 1.05921 124.385C2.39683 122.1 4.8784 120.568 7.71707 120.568H125.283C127.413 120.568 129.344 121.431 130.739 122.829C131.202 123.292 131.608 123.816 131.941 124.385C132.613 125.528 133 126.863 133 128.285Z" fill="#B3B3B3"/>
<path d="M133 128.286H0C0 126.863 0.384341 125.529 1.05921 124.385H131.941C132.613 125.529 133 126.863 133 128.286Z" fill="#999999"/>
</g>
<defs>
<clipPath id="clip0_732_106">
<rect width="133" height="133" fill="white"/>
</clipPath>
</defs>
</svg>
