<svg width="141" height="114" viewBox="0 0 141 114" fill="none" xmlns="http://www.w3.org/2000/svg">
<g opacity="0.5" clip-path="url(#clip0_732_90)">
<path d="M7.23828 70.5008C7.23828 87.279 13.9034 103.37 25.7674 115.234C37.6314 127.098 53.7225 133.763 70.5008 133.763C87.279 133.763 103.37 127.098 115.234 115.234C127.098 103.37 133.763 87.279 133.763 70.5008C133.763 53.7225 127.098 37.6314 115.234 25.7674C103.37 13.9034 87.279 7.23828 70.5008 7.23828C53.7225 7.23828 37.6314 13.9034 25.7674 25.7674C13.9034 37.6314 7.23828 53.7225 7.23828 70.5008Z" fill="#C8C6C4"/>
<path d="M70.5006 26.3789C48.7549 26.3789 30.8197 42.7772 27.8692 64.0717H18.4518C16.8184 64.0717 15.2519 64.7206 14.0969 65.8756C12.9418 67.0306 12.293 68.5972 12.293 70.2306C12.293 71.8641 12.9418 73.4306 14.0969 74.5856C15.2519 75.7406 16.8184 76.3895 18.4518 76.3895H27.8692C30.8197 97.684 48.7549 114.082 70.5006 114.082C94.307 114.082 113.606 94.4495 113.606 70.2306C113.606 46.0117 94.307 26.3789 70.5006 26.3789Z" fill="#E6E4E2"/>
<path d="M37.8477 70.2316C37.8477 74.5197 38.6923 78.7659 40.3333 82.7276C41.9742 86.6893 44.3795 90.289 47.4116 93.3211C50.4438 96.3533 54.0435 98.7585 58.0052 100.399C61.9669 102.04 66.213 102.885 70.5011 102.885C74.7893 102.885 79.0354 102.04 82.9971 100.399C86.9588 98.7585 90.5585 96.3533 93.5906 93.3211C96.6228 90.289 99.028 86.6893 100.669 82.7276C102.31 78.7659 103.155 74.5197 103.155 70.2316C103.155 61.5714 99.7143 53.2658 93.5906 47.1421C87.4669 41.0184 79.1614 37.5781 70.5011 37.5781C61.8409 37.5781 53.5354 41.0184 47.4116 47.1421C41.2879 53.2658 37.8477 61.5714 37.8477 70.2316Z" fill="#C4BCB1"/>
<path d="M93.3874 47.0233C93.3021 46.9416 93.2084 46.8753 93.1217 46.7949L48.082 94.0377C48.1666 94.1202 48.2378 94.2104 48.3231 94.2922C61.3762 106.736 82.0454 106.243 94.4894 93.1896C106.934 80.1365 106.441 59.4673 93.3874 47.0233Z" fill="#928B82"/>
</g>
<defs>
<clipPath id="clip0_732_90">
<rect width="141" height="114" fill="white"/>
</clipPath>
</defs>
</svg>
