<svg width="43" height="43" viewBox="0 0 43 43" fill="none" xmlns="http://www.w3.org/2000/svg">
<g clip-path="url(#clip0_640_92)">
<path d="M21.4974 30.6934C20.7072 30.6934 20.0664 31.334 20.0664 32.1242V36.8464C20.0664 37.6366 20.7072 38.2774 21.4974 38.2774C22.2876 38.2774 22.9284 37.6366 22.9284 36.8464V32.1242C22.9284 31.334 22.2876 30.6934 21.4974 30.6934Z" fill="#4E2A07"/>
<path d="M15.1888 31.9311C15.0821 31.1481 14.3621 30.5999 13.5775 30.7066C12.7946 30.8133 12.2464 31.5348 12.3531 32.3178L12.9971 37.0399C13.0948 37.7573 13.7086 38.2777 14.4131 38.2777C14.4773 38.2777 14.5426 38.2733 14.6082 38.2644C15.3912 38.1577 15.9393 37.4362 15.8326 36.6531L15.1888 31.9311Z" fill="#4E2A07"/>
<path d="M29.4207 30.7067C28.6369 30.5997 27.9162 31.1483 27.8095 31.9311L27.1656 36.6531C27.0589 37.4363 27.6071 38.1577 28.39 38.2644C28.4556 38.2734 28.5208 38.2777 28.5852 38.2777C29.2897 38.2777 29.9034 37.7572 30.0012 37.04L30.6451 32.3178C30.7518 31.5348 30.2037 30.8134 29.4207 30.7067Z" fill="#4E2A07"/>
<path d="M41.8929 22.6805C41.8929 18.2847 39.7057 13.6915 35.892 10.0788C33.4568 7.77156 30.6106 6.09833 27.5671 5.13915C27.0821 2.22717 24.5466 0 21.4992 0C18.4518 0 15.9161 2.22717 15.4313 5.13915C12.3878 6.09833 9.54158 7.77171 7.10636 10.0788C3.29253 13.6915 1.10547 18.2847 1.10547 22.6805C1.10547 25.4215 2.92928 27.7489 5.44051 28.5422L6.57096 37.7662C6.9248 40.6522 9.57806 43 12.4853 43H30.5131C33.4203 43 36.0736 40.6522 36.4276 37.7663L37.5559 28.56C40.0649 27.7832 41.8929 25.4417 41.8929 22.6805ZM21.4992 2.86189C23.314 2.86189 24.7904 4.33822 24.7904 6.15305C24.7904 7.96789 23.314 9.44422 21.4992 9.44422C19.6844 9.44422 18.208 7.96789 18.208 6.15305C18.208 4.33822 19.6844 2.86189 21.4992 2.86189ZM33.5868 37.418C33.406 38.8924 31.9983 40.1381 30.5131 40.1381H12.4853C11 40.1381 9.5924 38.8924 9.41156 37.418L8.34916 28.7489C9.83346 28.5012 11.1397 27.7207 12.0634 26.6108C13.2067 27.9681 14.9287 28.8336 16.8513 28.8336C18.7349 28.8336 20.4222 27.9727 21.5449 26.6212C22.6813 27.9727 24.389 28.8336 26.2957 28.8336C28.1793 28.8336 29.8665 27.9727 30.9893 26.6212C31.9042 27.7092 33.1897 28.4782 34.6507 28.7372L33.5868 37.418ZM35.7399 25.9717C33.9046 25.9717 32.4115 24.4954 32.4115 22.6807C32.4115 21.8903 31.7708 21.2497 30.9806 21.2497C30.1904 21.2497 29.5496 21.8903 29.5496 22.6807C29.5496 24.4954 28.0899 25.9717 26.2955 25.9717C24.4603 25.9717 22.9673 24.4954 22.9673 22.6807C22.9673 21.8903 22.3265 21.2497 21.5363 21.2497C20.746 21.2497 20.1052 21.8903 20.1052 22.6807C20.1052 24.4954 18.6456 25.9717 16.8511 25.9717C15.0268 25.9717 13.4857 24.4647 13.4857 22.6807C13.4857 21.8903 12.8449 21.2497 12.0547 21.2497C11.2645 21.2497 10.6237 21.8903 10.6237 22.6807C10.6237 24.4954 9.14734 25.9717 7.33265 25.9717C5.50826 25.9717 3.96707 24.4647 3.96707 22.6807C3.96707 19.1202 5.87644 15.186 9.07437 12.1567C11.0196 10.3136 13.2626 8.93778 15.6574 8.08226C16.4688 10.5327 18.7799 12.3063 21.4991 12.3063C24.2182 12.3063 26.5293 10.5327 27.3407 8.08226C29.7357 8.93763 31.9783 10.3135 33.9237 12.1567C37.1218 15.1861 39.031 19.1204 39.031 22.6807C39.0312 24.4954 37.5548 25.9717 35.7399 25.9717Z" fill="#4E2A07"/>
</g>
<defs>
<clipPath id="clip0_640_92">
<rect width="43" height="43" fill="white"/>
</clipPath>
</defs>
</svg>
