<svg width="43" height="43" viewBox="0 0 43 43" fill="none" xmlns="http://www.w3.org/2000/svg">
<g clip-path="url(#clip0_640_98)">
<path d="M21.4974 30.6934C20.7072 30.6934 20.0664 31.334 20.0664 32.1242V36.8464C20.0664 37.6366 20.7072 38.2774 21.4974 38.2774C22.2876 38.2774 22.9284 37.6366 22.9284 36.8464V32.1242C22.9284 31.334 22.2876 30.6934 21.4974 30.6934Z" fill="#4E2A07"/>
<path d="M15.1888 31.9311C15.0821 31.1481 14.3621 30.5999 13.5775 30.7066C12.7946 30.8133 12.2464 31.5348 12.3531 32.3178L12.9971 37.0399C13.0948 37.7573 13.7086 38.2777 14.4131 38.2777C14.4773 38.2777 14.5426 38.2733 14.6082 38.2644C15.3912 38.1577 15.9393 37.4362 15.8326 36.6531L15.1888 31.9311Z" fill="#4E2A07"/>
<path d="M29.4207 30.7067C28.6369 30.5997 27.9162 31.1483 27.8095 31.9311L27.1656 36.6531C27.0589 37.4363 27.6071 38.1577 28.39 38.2644C28.4556 38.2734 28.5208 38.2777 28.5852 38.2777C29.2897 38.2777 29.9034 37.7572 30.0012 37.04L30.6451 32.3178C30.7518 31.5348 30.2037 30.8134 29.4207 30.7067Z" fill="#4E2A07"/>
<path d="M41.8929 22.6805C41.8929 18.2847 39.7057 13.6915 35.892 10.0788C33.4568 7.77156 30.6106 6.09833 27.5671 5.13915C27.0821 2.22717 24.5466 0 21.4992 0C18.4518 0 15.9161 2.22717 15.4313 5.13915C12.3878 6.09833 9.54158 7.77171 7.10636 10.0788C3.29253 13.6915 1.10547 18.2847 1.10547 22.6805C1.10547 25.4215 2.92928 27.7489 5.44051 28.5422L6.57096 37.7662C6.9248 40.6522 9.57806 43 12.4853 43H30.5131C33.4203 43 36.0736 40.6522 36.4276 37.7663L37.5559 28.56C40.0649 27.7832 41.8929 25.4417 41.8929 22.6805ZM21.4992 2.86189C23.314 2.86189 24.7904 4.33822 24.7904 6.15305C24.7904 7.96789 23.314 9.44422 21.4992 9.44422C19.6844 9.44422 18.208 7.96789 18.208 6.15305C18.208 4.33822 19.6844 2.86189 21.4992 2.86189ZM33.5868 37.418C33.406 38.8924 31.9983 40.1381 30.5131 40.1381H12.4853C11 40.1381 9.5924 38.8924 9.41156 37.418L8.34916 28.7489C9.83346 28.5012 11.1397 27.7207 12.0634 26.6108C13.2067 27.9681 14.9287 28.8336 16.8513 28.8336C18.7349 28.8336 20.4222 27.9727 21.5449 26.6212C22.6813 27.9727 24.389 28.8336 26.2957 28.8336C28.1793 28.8336 29.8665 27.9727 30.9893 26.6212C31.9042 27.7092 33.1897 28.4782 34.6507 28.7372L33.5868 37.418ZM35.7399 25.9717C33.9046 25.9717 32.4115 24.4954 32.4115 22.6807C32.4115 21.8903 31.7708 21.2497 30.9806 21.2497C30.1904 21.2497 29.5496 21.8903 29.5496 22.6807C29.5496 24.4954 28.0899 25.9717 26.2955 25.9717C24.4603 25.9717 22.9673 24.4954 22.9673 22.6807C22.9673 21.8903 22.3265 21.2497 21.5363 21.2497C20.746 21.2497 20.1052 21.8903 20.1052 22.6807C20.1052 24.4954 18.6456 25.9717 16.8511 25.9717C15.0268 25.9717 13.4857 24.4647 13.4857 22.6807C13.4857 21.8903 12.8449 21.2497 12.0547 21.2497C11.2645 21.2497 10.6237 21.8903 10.6237 22.6807C10.6237 24.4954 9.14734 25.9717 7.33265 25.9717C5.50826 25.9717 3.96707 24.4647 3.96707 22.6807C3.96707 19.1202 5.87644 15.186 9.07437 12.1567C11.0196 10.3136 13.2626 8.93778 15.6574 8.08226C16.4688 10.5327 18.7799 12.3063 21.4991 12.3063C24.2182 12.3063 26.5293 10.5327 27.3407 8.08226C29.7357 8.93763 31.9783 10.3135 33.9237 12.1567C37.1218 15.1861 39.031 19.1204 39.031 22.6807C39.0312 24.4954 37.5548 25.9717 35.7399 25.9717Z" fill="#4E2A07"/>
<path d="M21.9726 3.30809C21.6028 3.30809 21.1078 3.21242 20.8655 3.55971C20.4828 4.10824 20.2742 4.42327 20.2742 5.09457C20.2742 6.00127 21.1786 6.13878 21.9726 6.13878C22.8033 6.13878 23.1858 6.07546 23.7842 5.45942C24.3189 4.90907 24.7955 4.10828 24.1491 3.44648C22.7382 2.00198 19.5027 3.11022 18.4877 4.41521C17.996 5.04736 17.2329 5.97885 17.217 6.81815C17.2034 7.53918 18.0712 7.60471 18.6261 7.61074C19.7596 7.62306 20.9127 7.58684 21.9223 6.99428C22.3148 6.76388 24.0444 5.55765 23.5075 4.91844C23.078 4.40722 21.1086 5.90064 20.8907 6.27717C20.2099 7.45297 21.3678 7.75475 22.2871 8.03849C22.924 8.23505 24.1664 8.41706 24.5894 7.74913C24.8746 7.29891 25.0777 6.62806 24.3504 6.59169C23.4423 6.54629 22.4903 7.15459 21.8594 7.77429C21.5581 8.07022 21.366 8.77642 21.3813 8.71786C21.5855 7.9351 17.9372 9.53561 19.1419 9.53561C19.4286 9.53561 19.5985 9.30916 19.23 9.30916C18.7477 9.30916 18.2654 9.30916 17.7832 9.30916C16.7583 9.30916 15.7608 9.4672 14.7764 9.22109C13.5265 8.90862 12.6895 8.98575 11.4676 9.53561C10.8192 9.8274 10.3766 10.3516 9.74402 10.6679C9.32975 10.875 8.99652 11.0859 8.61175 11.3473C7.53269 12.0802 6.7884 12.7046 6.09558 13.8383C5.37809 15.0123 4.93316 16.5326 4.65507 17.8767C4.50518 18.6012 4.54383 19.343 4.42232 20.0721C4.3439 20.5426 4.1358 21.3072 4.48523 21.7202C5.02382 22.3567 4.87762 23.4643 5.54831 24.0791C5.96804 24.4638 7.62889 25.0024 7.09575 24.8025C5.8509 24.3356 6.20921 22.3616 6.30316 21.349C6.47051 19.5453 7.05461 17.7494 7.58641 16.021C7.89493 15.0183 8.69619 14.202 9.15901 13.2533C9.45456 12.6474 9.69552 11.9913 10.0334 11.4102C10.5869 10.458 11.4128 9.86526 12.2665 9.2148C12.7181 8.8707 13.741 8.54958 14.2794 8.68011C14.8579 8.82036 13.6139 10.5124 13.5057 10.693C12.6593 12.1058 11.7967 13.5081 10.8889 14.8825C9.77769 16.5647 8.76783 18.2943 7.67447 19.984C7.07732 20.9069 6.90836 22.7008 7.20269 23.752C7.42002 24.5281 7.95644 25.1151 8.21545 25.8404C8.33797 26.1834 8.39813 26.5087 8.54884 26.8531C8.76439 27.3458 8.95576 28.0843 9.05837 28.6145C9.20532 29.3737 9.44867 30.0053 9.79435 30.6966C10.0595 31.2269 10.2053 31.992 10.3542 32.5711C10.4794 33.0579 10.5796 33.545 10.48 34.0431C10.4094 34.396 10.3039 35.0025 10.5429 35.3012C10.8468 35.681 10.6188 36.098 10.8323 36.4775C10.9987 36.7734 11.0491 36.7832 11.109 37.1128C11.1563 37.3726 11.1449 37.8508 11.2852 38.069C11.5328 38.4541 11.9897 38.9049 12.3608 38.9874C13.1769 39.1687 13.9726 39.4602 14.7889 39.6416C14.8028 39.6447 14.1499 39.6542 13.9397 39.6542C13.0761 39.6542 12.2127 39.3619 11.3544 39.2264C10.3301 39.0647 10.6498 37.6027 10.6498 36.8235C10.6498 36.7037 10.6729 36.5439 10.5303 36.4964C10.4407 36.4665 10.2473 36.4838 10.2473 36.4838C10.2473 36.4838 10.4024 36.4838 10.48 36.4838C10.6689 36.4838 10.7097 36.2715 10.8008 36.1315C12.0986 34.1367 12.2522 32.33 12.235 29.9921C12.2247 28.5848 12.1112 27.2856 11.6752 25.941C11.3925 25.0695 11.1505 24.2756 11.2663 23.3494C11.4393 21.9655 12.1829 20.7404 12.0966 19.3109C12.0534 18.5941 11.9639 18.0408 12.3734 17.4049C12.7234 16.8615 13.1596 16.3821 13.4302 15.7883C13.4465 15.7525 13.6659 15.0316 13.5623 15.4046C13.2818 16.4144 12.9417 17.4066 12.6628 18.4177C12.4011 19.3662 12.0962 20.3064 11.8576 21.261C11.6973 21.9022 11.7821 21.2812 11.7821 20.9842C11.7821 19.3724 11.6689 17.7626 11.6689 16.1531C11.6689 16.1195 11.7462 15.4286 11.7758 15.8135C11.8342 16.5728 11.8073 17.3963 11.6563 18.1409C11.4308 19.2526 11.0188 20.3271 10.7694 21.4371C10.6613 21.9179 10.0719 23.229 10.4108 22.8713C10.8271 22.4319 11.0991 21.5663 11.3166 21.0156C11.642 20.1922 11.7949 19.3378 11.5557 18.468C11.3307 17.65 10.9201 18.1105 10.5744 18.6127C9.89006 19.6069 9.37477 20.7993 8.98917 21.9403C8.6397 22.9745 9.67709 21.5092 9.76289 21.3805C10.4771 20.3092 11.1125 19.2 11.7192 18.0654C13.0274 15.6188 14.6059 13.3709 15.808 10.8692C15.9598 10.5532 16.1243 10.1878 16.4748 10.0388C16.6457 9.96619 17.4195 9.87895 17.5316 10.0514C17.8122 10.4831 15.8462 12.3592 15.6319 12.6305C14.6085 13.9254 13.5757 15.3221 12.82 16.7948C12.5081 17.4027 12.6573 17.5358 13.2415 17.1973C14.6367 16.389 15.8502 15.216 16.9906 14.0962C18.2526 12.857 19.5628 11.6117 20.7271 10.2779C20.9641 10.0064 21.3273 9.52131 20.9284 10.2653C20.0731 11.8603 18.943 13.3368 17.9467 14.8447C17.7133 15.1981 17.0803 16.1442 16.8396 16.5683C16.774 16.6839 16.3912 17.4146 16.8899 16.9583C17.9594 15.9799 18.8001 14.6383 19.5445 13.4105C20.1181 12.4644 20.4262 11.3536 20.9913 10.4289C21.3473 9.84634 20.7851 11.7809 20.6139 12.4418C20.408 13.2363 19.9618 14.4187 20.2302 15.2536C20.3956 15.7682 21.3315 14.479 21.3687 14.4296C22.3127 13.1751 23.1322 11.7152 23.6584 10.2338C23.7809 9.88906 23.805 9.46237 23.7842 10.1017C23.7367 11.5627 23.3801 12.97 23.0734 14.3918C23.0479 14.5101 22.5122 16.4954 22.7904 16.6438C23.0327 16.7731 24.2422 14.7034 24.2875 14.6246C25.1202 13.1749 25.5277 11.6257 25.9985 10.0388C26.4289 8.58827 26.2753 10.7361 26.2753 11.0768C26.2753 12.3241 26.2621 13.5723 26.2753 14.8196C26.2821 15.4733 26.6297 14.7124 26.7533 14.4799C27.3965 13.2701 27.7848 11.8713 27.873 10.5043C27.8918 10.2126 27.9983 7.98052 27.4704 7.87494C27.1926 7.81936 27.0988 10.0777 27.093 10.215C27.0867 10.3642 26.8587 12.3585 27.3824 11.775C28.0331 11.0499 28.3954 9.9172 28.175 8.95689C28.0709 8.50336 27.7531 8.11449 27.2566 8.08881C26.6881 8.05941 27.2905 9.24402 27.3887 9.39722C27.7329 9.93462 28.8825 10.8375 29.5903 10.8881C30.5073 10.9536 30.8351 10.7569 31.534 11.4668C32.3754 12.3213 33.2033 13.0792 34.2012 13.7502C34.7478 14.1178 35.3246 14.4685 35.8241 14.9013C36.2835 15.2995 36.5595 16.0777 36.7928 16.6186C37.2963 17.7858 37.6035 19.0335 37.8811 20.2671C37.9219 20.4485 38.1389 21.7134 38.0258 20.8647C37.8773 19.751 37.4437 18.8368 36.8432 17.9019C36.4452 17.2823 36.2234 16.5656 35.7864 15.9707C35.535 15.6286 35.1726 15.389 34.9938 14.9957C34.9386 14.8743 34.9152 14.6781 34.8176 14.5805C34.3139 14.0767 33.7341 13.8607 33.3205 13.1841C32.83 12.3813 32.4613 11.5021 31.9429 10.7245C31.7143 10.3815 31.571 10.1014 31.1944 9.92562C30.3676 9.53981 29.34 9.60098 28.5587 9.13931C28.225 8.94214 27.998 8.82762 27.5962 8.95689C26.2683 9.38413 24.9621 10.1077 23.7151 10.7182C18.8173 13.1161 14.2933 16.2755 10.5115 20.2042C9.57657 21.1754 8.64984 22.1523 7.89464 23.2739C7.86495 23.318 7.10668 24.338 7.48576 24.1546C8.0805 23.8668 8.59054 23.4374 9.12756 23.06C9.49851 22.7994 9.55503 22.918 9.80693 23.2299C10.1909 23.7053 10.7131 24.0016 11.2789 23.6073C11.476 23.4699 11.966 22.8068 12.1847 22.7958C12.3296 22.7886 11.995 24.3019 11.9583 24.4188C11.6491 25.4008 12.3045 24.0087 12.3986 23.8526C13.3235 22.3176 14.2084 20.8098 14.8581 19.1348C15.0545 18.6286 15.3558 17.1816 15.5815 17.6754C15.9333 18.4449 15.2739 20.166 15.1098 20.9024C14.9328 21.6964 14.7992 22.2457 14.6443 23.0411C14.5862 23.3393 14.2491 24.4611 14.487 24.8213C14.7692 25.2487 16.3149 22.9688 16.3427 22.9279C17.5298 21.1836 18.5202 19.3355 19.3809 17.4112C19.5925 16.9382 19.7559 16.4412 20.01 15.9896C20.2188 15.6184 19.9729 16.8451 19.8779 17.2603C19.4291 19.2209 18.6831 21.0163 17.8712 22.8461C17.5352 23.6035 16.5153 25.8567 16.9654 25.161C17.6787 24.0587 18.497 23.0212 19.2426 21.9403C20.794 19.691 22.1486 17.3488 23.5892 15.0334C25.4637 12.0209 20.4528 21.401 19.0161 24.6452C18.5933 25.6 18.8527 25.0463 18.6135 25.6643C18.5248 25.8934 18.8119 25.214 18.928 24.9975C20.082 22.8466 21.2453 20.691 22.4507 18.5687C22.8131 17.9306 23.2695 17.1426 23.6899 16.518C23.9537 16.1261 24.3434 15.7337 23.9101 16.5306C22.6178 18.907 20.8372 21.0028 19.4376 23.3179C19.3684 23.4323 17.331 26.9214 18.6764 24.9723C20.5842 22.2086 22.3929 19.3861 24.1805 16.5431C25.1755 14.9608 25.9345 13.7563 26.8728 12.1902C27.0848 11.8363 27.2885 11.4775 27.4956 11.1208C27.6007 10.9397 27.7326 10.4099 27.8353 10.5924C27.9562 10.8074 27.7094 11.0717 27.6088 11.2969C27.0062 12.6469 26.2172 13.9156 25.4764 15.1907C23.832 18.021 22.2381 20.8719 20.8277 23.8275C20.7344 24.0231 20.6443 24.2203 20.5573 24.4188C20.5394 24.4594 20.4871 24.5805 20.5132 24.5446C20.5889 24.4404 20.6428 24.3221 20.7082 24.2112C21.3231 23.1685 21.958 22.1379 22.5765 21.0974C23.3069 19.8686 25.335 16.0959 24.7467 17.3986C23.9703 19.1177 22.775 20.656 21.8468 22.2926C21.2863 23.2809 20.8026 24.2117 20.3497 25.2491C20.2129 25.5624 20.0939 25.8834 19.9785 26.2052C19.8996 26.4255 19.5942 26.9088 19.8276 26.8909C20.1554 26.8657 20.2388 26.3773 20.4314 26.1109C21.6397 24.4396 22.8615 22.7784 24.0736 21.11C25.8592 18.6522 27.4 16.0354 29.1626 13.5678C29.3868 13.2538 29.4265 13.2477 29.3135 13.5866C28.997 14.5363 28.5385 15.4483 28.175 16.3796C27.8518 17.2076 27.499 18.1659 27.2314 19.0216C27.1315 19.3411 26.8028 20.1929 27.0867 20.0155C27.2031 19.9427 27.3583 19.6936 27.4075 19.6192C27.9088 18.8612 28.3602 18.0684 28.8417 17.298C29.4785 16.2791 30.1189 15.2595 30.7855 14.2597C30.8241 14.2018 31.0718 13.8152 30.7792 13.9766C30.3084 14.2364 29.9797 15.1406 29.7035 15.5618C28.852 16.8608 27.987 18.1479 27.2188 19.4996C26.6469 20.5061 26.2656 21.4775 26.118 22.626C26.11 22.6883 25.9135 23.7658 26.1998 23.6513C26.7667 23.4245 27.3492 22.5832 27.5711 22.041C27.6509 21.8457 27.5105 21.3433 27.2188 21.5755C26.607 22.0624 26.1619 22.9999 25.7657 23.6513C25.3001 24.4168 24.6518 25.3836 24.6272 26.3185C24.6004 27.3352 30.5959 24.5829 30.8169 24.4691C33.1286 23.2785 35.6177 21.9186 37.3527 19.9337C37.9353 19.2672 38.8757 17.9147 38.4535 16.9331C38.1063 16.1259 36.4773 16.6762 35.9877 16.9017C33.9712 17.8301 32.1931 19.4556 30.6031 20.9716C29.4534 22.0678 28.0576 23.2512 27.2628 24.6515C27.1444 24.8602 26.8118 25.5932 27.3195 25.6139C28.2132 25.6504 29.1956 24.9369 29.8985 24.5068C31.5666 23.4862 33.0268 22.1637 34.2012 20.5942C34.7571 19.8512 35.3835 18.8075 34.5157 18.0528C34.0252 17.6263 33.4163 17.4957 32.7921 17.4112C31.5886 17.2483 30.3863 17.2905 29.2192 17.6628C27.7756 18.1234 25.7328 19.0282 24.9039 20.3929C23.5629 22.6009 27.4424 22.1193 28.414 21.7894C30.1732 21.192 31.8958 20.0791 33.2325 18.8014C34.0781 17.993 35.2183 16.7999 35.1951 15.5241C35.1846 14.9472 34.8355 14.9726 34.4088 15.1592C33.2946 15.6467 32.2308 16.2961 31.1692 16.8828C29.2822 17.9257 27.2571 18.9554 25.6714 20.4432C25.4295 20.6701 24.7109 21.4296 25.5456 21.2358C26.74 20.9585 27.8142 20.2245 28.8166 19.5563C30.4973 18.4358 32.109 17.1647 33.2199 15.4486C33.3109 15.308 33.7731 14.1138 33.7105 14.2597C33.2514 15.3311 32.5092 16.2666 31.8737 17.2351C31.8371 17.291 30.605 19.0997 30.9365 19.1411C31.466 19.2073 32.3274 18.5042 32.7166 18.2667C33.4301 17.8315 35.4093 16.3477 34.8743 16.9898C33.9308 18.1219 32.8168 19.1107 31.8863 20.2671C31.8439 20.3198 30.8817 21.3359 31.3453 21.5126C31.8627 21.7097 32.8234 21.3696 33.3079 21.261C34.3344 21.0309 35.4503 20.4974 36.5035 20.4495C37.1829 20.4186 36.0744 22.2095 35.9877 22.3681C35.6111 23.0563 34.9731 23.779 34.7988 24.5634C34.6616 25.1809 36.0934 24.1362 36.2393 24.0413C36.3075 23.997 37.3136 23.1455 37.3841 23.1858C37.5388 23.2742 36.2453 25.1827 36.1764 25.2868C36.1534 25.3215 35.1245 26.9019 35.1636 26.9098C35.5934 26.9957 36.7001 25.3456 36.8935 25.0855C37.4598 24.3241 38.1117 23.4501 38.4158 22.5379C38.5307 22.1932 38.603 21.9328 38.3529 22.4184C38.1079 22.8939 37.8142 23.6391 37.4093 24.0036C36.9011 24.461 37.9297 22.7381 38.1516 22.0913C38.2934 21.6778 38.3906 20.3646 38.3906 20.8018C38.3906 21.4321 38.2781 21.9895 38.0572 22.5819C37.8075 23.2517 37.7127 23.5551 37.1325 23.9721C36.8459 24.1782 36.4356 24.3004 36.2393 24.6075C35.9813 25.011 35.7263 25.4669 35.5159 25.897C35.1757 26.5923 35.051 27.3494 34.9875 28.1112C34.9297 28.805 34.4603 29.4272 34.088 29.9858C33.6692 30.6139 33.3657 31.3168 32.9557 31.9547C32.6624 32.4108 32.5028 32.6589 32.5028 33.2065C32.5028 34.1435 32.5549 35.0959 32.4965 36.0309C32.4641 36.5482 32.2116 37.0251 32.1694 37.5532C32.1303 38.0415 32.2179 38.5041 32.0499 38.9748C31.9065 39.3762 31.8507 39.9284 31.5278 40.2266C30.41 41.2583 28.2295 41.1261 26.8477 41.1261C25.0845 41.1261 23.4829 41.477 21.7713 41.8621C21.197 41.9913 20.6868 42.0319 20.0981 42.0319C18.971 42.0319 18.0376 40.4603 17.5127 39.6038C17.2799 39.2239 16.7753 38.7775 16.6635 38.3583C16.5266 37.8449 16.5227 37.3828 16.0848 36.9996C15.5307 36.5148 14.9852 35.7651 14.5185 35.1817C13.5066 33.9169 12.6911 32.2756 12.2979 30.7029C11.9873 29.4605 11.9403 28.4504 12.0023 27.1802C12.0497 26.2086 12.3507 28.3318 12.3231 28.6082C12.1513 30.3256 11.3292 31.8984 11.3292 33.6405C11.3292 34.1271 11.5683 34.4921 10.9707 34.2381C10.3339 33.9675 10.2372 33.3761 10.1466 32.7599C10.1089 32.5033 10.125 31.556 9.80064 31.4263C9.47314 31.2953 9.90246 31.975 9.92015 32.005C10.095 32.3017 10.1635 32.6718 10.1906 33.0115C10.2678 33.9756 12.6325 31.5468 12.8389 31.3445C14.121 30.0876 15.4078 28.8175 16.588 27.4633C17.098 26.8782 18.0986 25.8782 18.2109 25.0541C18.3049 24.365 17.27 26.0802 16.7641 26.5575C16.6625 26.6534 15.3455 27.7899 15.8394 27.0985C16.4938 26.1823 17.1944 25.3005 17.8461 24.381C18.3886 23.6155 18.3632 24.2103 18.2675 24.8213C17.8438 27.5267 16.5814 30.0414 15.8835 32.6781C15.804 32.9783 15.4757 33.701 15.7702 33.6028C16.0282 33.5168 16.2993 32.6579 16.4119 32.4328C16.9503 31.3559 16.469 31.3809 15.569 31.9295C14.2636 32.7251 12.9289 34.0971 12.5999 35.6283C12.4627 36.2668 12.1888 37.0842 12.9396 37.3015C15.1025 37.9277 17.4905 38.0597 19.7206 38.157C20.1007 38.1736 21.1308 38.2039 20.8277 38.4338C20.0067 39.0566 18.8646 39.3488 17.8964 39.629C17.0751 39.8667 15.8874 39.9389 15.1664 40.4405C15.0138 40.5466 15.0045 40.7292 14.8015 40.7613C14.1917 40.8576 13.4958 40.8094 12.8829 40.7738C12.443 40.7483 11.6419 40.6574 12.5621 40.4593C16.2156 39.6731 19.9499 40.4982 23.6207 39.9309C26.231 39.5275 30.9542 40.9903 31.7605 37.4022C32.0206 36.2449 32.1504 35.4039 32.075 34.2192C31.9778 32.692 32.6205 31.0659 32.9557 29.5895C33.1882 28.5653 33.8462 27.8008 34.3773 26.9223C34.8123 26.2029 35.1617 25.4927 34.0754 26.2807C32.4856 27.4339 31.1417 29.016 29.8608 30.489C28.7999 31.7091 27.8317 33.0042 27.5082 34.6218C27.4038 35.1437 27.3069 35.7874 27.3069 36.3265C27.3069 36.3859 27.3725 36.2275 27.4012 36.1756C27.6976 35.6394 28.0569 35.1484 28.3888 34.6344C29.4795 32.9452 30.299 31.1313 31.0748 29.2812C31.392 28.5249 31.2415 28.8836 31.4523 28.3566C31.5246 28.1757 31.5693 28.1804 31.5718 28.432C31.5859 29.8895 30.7697 31.253 30.0684 32.4705C29.1966 33.9837 27.7623 35.6434 27.332 37.3644C27.2289 37.7771 28.6382 36.5291 28.7096 36.4586C29.4181 35.7599 30.0953 34.9215 30.4521 33.9802C30.4791 33.9089 30.5779 32.9915 30.5779 33.3763C30.5779 33.9885 30.4663 34.6452 30.5653 35.2509C30.7759 36.5389 32.5957 35.0974 33.0186 34.647C33.7868 33.8286 33.6123 32.6874 34.1509 31.7785C34.699 30.8536 34.3975 32.4222 34.3018 32.785C33.9733 34.0306 33.0649 35.1225 32.3581 36.1693C31.99 36.7145 31.3923 37.3937 31.2573 38.069C31.1397 38.6566 29.7377 38.6565 29.345 38.698C28.5762 38.7792 27.9026 38.786 27.2503 38.3143C26.6836 37.9045 26.3252 37.279 25.7594 36.8738C25.1487 36.4363 24.7917 36.9367 24.212 36.9367C23.4844 36.9367 22.7809 36.8364 22.067 36.6914C21.4945 36.5751 19.7667 36.4769 19.5319 35.7541C19.1826 34.6787 19.9677 33.4632 20.6642 32.7347C22.2873 31.0371 24.5984 30.38 26.6778 29.4385C28.703 28.5216 25.9919 29.1796 25.4952 29.3442C23.0584 30.1515 20.6172 30.8374 18.148 31.5332C17.8735 31.6106 17.6116 31.7379 17.3303 31.7848C16.8823 31.8595 18.0438 31.2206 18.4248 30.9734C20.2806 29.7695 22.2738 28.7136 24.0422 27.3815C24.3159 27.1753 24.9763 26.6096 24.6397 26.5449C24.5427 26.5263 24.2195 26.6919 24.212 26.6959C23.3159 27.1734 22.4744 27.784 21.6581 28.3817C20.3583 29.3335 18.985 30.3315 17.9719 31.6024C17.6967 31.9476 18.7208 31.1343 19.0853 30.8853C20.5105 29.9117 22.2845 29.0426 23.4571 27.7527C23.7808 27.3967 23.1972 27.925 23.1929 27.9288C21.6546 29.2962 19.7856 30.3709 18.1229 31.5773C16.6188 32.6685 15.1543 33.9821 13.5434 34.9175C12.7651 35.3694 14.8181 33.6456 15.4809 33.0366C17.4833 31.197 19.5217 29.4214 21.7461 27.8533C21.9978 27.6759 22.4777 27.3307 22.7904 27.1614C23.0266 27.0334 23.1202 27.0749 23.0294 27.3501C22.5568 28.7822 21.547 30.1463 20.6327 31.3193C19.8913 32.2706 18.7174 33.1534 18.148 34.2192C18.0847 34.3378 18.4275 34.248 18.5506 34.1941C19.4576 33.7966 20.3284 33.3307 21.2492 32.9611C21.3535 32.9193 24.0438 31.964 24.0736 32.1056C24.1456 32.4478 20.7869 33.5709 20.5824 33.6468C18.8004 34.3082 16.9537 34.6857 15.1538 35.276C13.6113 35.7819 16.3492 35.2647 16.3553 35.2634C19.9639 34.4797 23.5215 33.481 27.1182 32.6466C27.3451 32.594 30.5832 31.7036 28.7726 32.6278C26.6449 33.7137 24.4195 34.5527 22.1487 35.2886C21.531 35.4888 20.4151 35.8239 19.7332 36.0183C19.5504 36.0704 19.0206 36.2087 19.1671 36.0875C20.1628 35.2634 21.1298 34.4011 22.1362 33.5902C23.0336 32.8671 25.9044 30.938 24.9291 31.5521C23.8091 32.2573 22.6859 33.0276 21.6832 33.8921C21.5864 33.9757 21.0147 34.4979 20.9032 34.6973C20.7027 35.0561 21.7122 34.5271 22.0921 34.3702C24.6967 33.2948 27.3796 32.3631 29.9237 31.1495C30.517 30.8665 31.5953 30.2992 32.2134 29.904C32.801 29.5283 30.9322 30.4562 30.3011 30.7532C28.4768 31.6117 26.603 32.408 24.8662 33.4392C24.1448 33.8675 24.6533 33.6643 25.0989 33.3889C25.6398 33.0547 26.1061 32.7371 26.6275 32.3636C26.9711 32.1174 27.8602 31.6138 28.0366 31.1369C28.2889 30.4548 26.4249 30.5672 26.2249 30.5897C23.9838 30.8408 21.8319 32.2269 19.9345 33.3386C18.8966 33.9467 17.6807 34.5888 16.8522 35.4962C16.5395 35.8387 17.5811 34.6586 17.6196 34.6092C17.8857 34.2678 18.496 33.1632 18.4248 33.5902C18.3125 34.2639 17.0293 35.0534 16.5503 35.427C16.4053 35.54 15.9515 35.8533 16.0973 35.7415C17.0945 34.9774 18.1713 34.3043 19.2111 33.6028C21.6832 31.9351 24.2141 30.2957 26.5646 28.4572C27.4079 27.7976 29.4427 26.5086 29.2192 25.1673C29.1176 24.5581 28.6323 24.0694 28.1372 23.7394C27.617 23.3926 26.7786 23.8075 26.2878 23.9847C24.3815 24.6731 22.6418 25.7478 20.941 26.8343C20.7649 26.9467 19.8935 27.5095 19.6326 27.7275C19.2299 28.064 20.5431 27.2013 20.9661 26.8909C22.227 25.9657 23.6046 24.9304 24.5643 23.6765C24.6034 23.6253 24.8236 23.0244 24.797 23.3305C24.6606 24.8995 27.5852 23.4934 28.1246 22.9971C29.8913 21.3718 27.0742 18.7227 25.8412 17.8641C24.2396 16.749 22.1216 16.3699 20.2113 16.2286C18.6656 16.1143 17.1724 16.5673 16.1477 17.7949C15.2926 18.8194 15.2173 20.2482 16.739 20.5816C18.9071 21.0567 21.5462 20.4576 23.6521 19.9337C25.963 19.3588 28.5581 18.3375 30.2131 16.5557C31.4675 15.2052 30.4317 14.2514 29.2318 13.4483C27.8892 12.5497 26.5971 11.9019 24.9417 12.0392C21.5274 12.3224 18.1898 13.6737 15.4746 15.7443C14.2172 16.7032 13.3592 17.5504 12.3105 18.7259C11.5797 19.5452 10.1796 20.9582 10.0711 22.1919C9.95421 23.5211 12.7158 23.8437 13.5246 23.9218C16.033 24.1641 18.649 23.6427 21.0542 22.972C22.4694 22.5773 23.6288 22.0703 24.6901 21.0848" stroke="#4E2A07" stroke-width="3" stroke-linecap="round"/>
<path d="M33.4101 24.7078C32.6358 24.8184 31.761 25.6137 31.133 26.0476C30.3528 26.5867 29.6801 27.2719 28.9313 27.853C28.0006 28.5752 26.9325 29.0562 25.9685 29.7275C25.8925 29.7805 24.9628 30.3627 25.1696 30.3692C27.8105 30.4517 30.5462 29.4456 33.0452 28.6959C33.1183 28.674 32.8999 28.7442 32.8314 28.7777C32.1161 29.127 31.4815 29.6527 30.831 30.105C28.9968 31.3802 27.1763 32.697 25.4716 34.1434C24.8859 34.6403 24.0531 35.3737 23.9115 36.1878C23.8883 36.3216 24.0801 36.7678 24.0625 36.7854C23.9674 36.8805 21.351 38.3602 22.3138 38.4083C22.6186 38.4236 25.111 38.411 25.0941 38.4838C24.9541 39.0908 23.0795 39.3336 22.6283 39.4148C21.3765 39.6401 19.9977 39.7644 18.7282 39.6035C16.8468 39.365 15.0366 38.7351 13.1927 38.3203C12.2108 38.0993 11.0896 37.707 10.0852 37.6157C9.14383 37.5301 9.65745 37.1295 10.1229 36.5967C10.7514 35.8772 11.158 34.9677 11.7396 34.2063C12.4637 33.2583 13.1359 32.2758 13.8217 31.3001C14.2828 30.6442 14.7795 29.76 14.5891 28.9224C14.4829 28.4547 14.2048 28.0229 14.0985 27.551C13.9796 27.0234 14.1459 26.351 13.7462 25.9092C13.3754 25.4994 12.8078 25.2764 12.4127 24.8587C11.9865 24.4083 10.6231 22.7342 9.94681 23.651C9.58857 24.1366 8.02716 26.3313 8.86486 26.8339C9.80638 27.3989 11.2491 26.7459 12.2365 26.7459" stroke="#4E2A07" stroke-width="3" stroke-linecap="round"/>
<path d="M26.957 21.0863C26.065 22.3768 25.1329 23.6419 24.2647 24.9486C23.2145 26.5293 21.7786 28.3812 21.3145 30.2577C20.8566 32.1092 24.3556 31.9967 25.4976 31.9436C27.9108 31.8313 30.326 29.8733 30.618 27.4019C30.8653 25.3091 30.416 22.9181 29.8506 20.9101C29.5332 19.7829 29.1191 18.699 28.5422 17.6895" stroke="#4E2A07" stroke-width="3" stroke-linecap="round"/>
</g>
<defs>
<clipPath id="clip0_640_98">
<rect width="43" height="43" fill="white"/>
</clipPath>
</defs>
</svg>
