<svg width="41" height="43" viewBox="0 0 41 43" fill="none" xmlns="http://www.w3.org/2000/svg">
<path d="M3.41797 21.5601C3.41797 17.5172 3.41797 15.4958 4.30494 13.82C5.1919 12.1443 6.81234 11.1043 10.0532 9.02423L13.4699 6.83134C16.8957 4.63258 18.6086 3.5332 20.5013 3.5332C22.394 3.5332 24.1069 4.63258 27.5328 6.83134L30.9495 9.02421C34.1903 11.1043 35.8107 12.1443 36.6977 13.82C37.5846 15.4958 37.5846 17.5172 37.5846 21.5601V24.2474C37.5846 31.1388 37.5846 34.5847 35.5831 36.7255C33.5818 38.8665 30.3604 38.8665 23.918 38.8665H17.0846C10.6421 38.8665 7.42085 38.8665 5.4194 36.7255C3.41797 34.5847 3.41797 31.1388 3.41797 24.2474V21.5601Z" stroke="#4E2A07" stroke-width="3"/>
<path d="M25.625 31.8008H15.375" stroke="#4E2A07" stroke-width="3" stroke-linecap="round"/>
</svg>
