<svg width="43" height="43" viewBox="0 0 43 43" fill="none" xmlns="http://www.w3.org/2000/svg">
<path d="M3.58203 21.866C3.58203 17.7659 3.58203 15.7159 4.51226 14.0164C5.4425 12.3169 7.14198 11.2622 10.5409 9.15272L14.1242 6.92879C17.7172 4.69892 19.5137 3.58398 21.4987 3.58398C23.4837 3.58398 25.2802 4.69892 28.8732 6.92879L32.4565 9.1527C35.8555 11.2622 37.5549 12.3169 38.4851 14.0164C39.4154 15.7159 39.4154 17.7659 39.4154 21.866V24.5913C39.4154 31.5802 39.4154 35.0748 37.3162 37.246C35.2173 39.4173 31.8388 39.4173 25.082 39.4173H17.9154C11.1586 39.4173 7.78017 39.4173 5.68109 37.246C3.58203 35.0748 3.58203 31.5802 3.58203 24.5913V21.866Z" fill="#4E2A07"/>
<path d="M16.125 30.9062C15.3829 30.9062 14.7812 31.5079 14.7812 32.25C14.7812 32.9921 15.3829 33.5937 16.125 33.5937H26.875C27.6171 33.5937 28.2187 32.9921 28.2187 32.25C28.2187 31.5079 27.6171 30.9062 26.875 30.9062H16.125Z" fill="#FFECC4"/>
</svg>
