<?xml version="1.0" encoding="iso-8859-1"?>
<!-- Uploaded to: SVG Repo, www.svgrepo.com, Generator: SVG Repo Mixer Tools -->
<svg version="1.1" id="Layer_1" xmlns="http://www.w3.org/2000/svg" xmlns:xlink="http://www.w3.org/1999/xlink" 
	 viewBox="0 0 512 512" xml:space="preserve">
<rect x="8.342" y="135.612" style="fill:#E0DCCD;" width="495.316" height="24.005"/>
<polygon style="fill:#4BAF78;" points="448.087,55.267 480.092,135.56 32.006,135.56 64.013,55.267 "/>
<g>
	<polygon style="fill:#FCBB3B;" points="120.023,55.267 96.018,135.56 160.031,135.56 176.034,55.267 	"/>
	<polygon style="fill:#FCBB3B;" points="392.075,55.267 416.08,135.56 352.068,135.56 336.065,55.267 	"/>
	<polygon style="fill:#FCBB3B;" points="288.056,135.608 224.043,135.608 232.044,55.592 280.054,55.592 	"/>
	<path style="fill:#FCBB3B;" d="M479.674,175.616c0,17.677-14.12,32.006-31.797,32.006s-31.901-14.33-31.901-32.006
		c0,17.677-14.278,32.006-31.954,32.006c-17.677,0-31.98-14.33-31.98-32.006c0,17.677-14.316,32.006-31.993,32.006
		s-31.999-14.33-31.999-32.006c0,17.677-14.327,32.006-32.003,32.006c-17.676,0-32.005-14.33-32.005-32.006
		c0,17.677-14.329,32.006-32.006,32.006s-32.006-14.33-32.006-32.006c0,17.677-14.33,32.006-32.006,32.006
		s-32.007-14.33-32.007-32.006c0,17.677-14.17,32.006-31.846,32.006s-31.846-14.33-31.846-32.006v-16.072h447.348V175.616z"/>
</g>
<g>
	<path style="fill:#4BAF78;" d="M95.935,175.616c0,17.677,14.127,32.006,31.804,32.006s31.804-14.33,31.804-32.006v-16.072H95.935
		V175.616z"/>
	<path style="fill:#4BAF78;" d="M224.196,175.616c0,17.677,14.127,32.006,31.804,32.006s31.805-14.33,31.805-32.006v-16.072h-63.609
		V175.616z"/>
	<path style="fill:#4BAF78;" d="M352.456,175.616c0,17.677,14.127,32.006,31.804,32.006s31.804-14.33,31.804-32.006v-16.072h-63.609
		V175.616z"/>
</g>
<g>
	<rect x="39.625" y="31.283" style="fill:#75C0C7;" width="432.75" height="23.984"/>
	<rect x="48.009" y="199.617" style="fill:#75C0C7;" width="416.076" height="280.057"/>
</g>
<rect x="432.082" y="455.67" style="fill:#FCBB3B;" width="32.006" height="24.005"/>
<rect x="48.489" y="199.617" style="fill:#589095;" width="415.606" height="120.023"/>
<rect x="80.012" y="255.635" style="fill:#FFFFFF;" width="240.046" height="160.034"/>
<rect x="80.012" y="255.635" style="fill:#F2F2F2;" width="240.046" height="64.016"/>
<rect x="48.009" y="455.67" style="fill:#FCBB3B;" width="304.061" height="24.005"/>
<polyline style="fill:#E0DCCD;" points="352.456,479.674 352.456,287.805 431.707,287.805 431.707,479.674 "/>
<rect x="352.07" y="287.638" style="fill:#A8A59A;" width="80.012" height="32.006"/>
<rect y="472.375" width="512" height="15.642"/>
<path d="M487.913,175.185h-15.642c0,13.556-10.849,24.185-24.185,24.185s-24.185-10.629-24.185-24.185H408.26
	c0,13.556-10.849,24.185-24.185,24.185c-13.336,0-24.186-10.629-24.186-24.185h-15.642c0,13.556-10.849,24.185-24.185,24.185
	c-13.336,0-24.186-10.629-24.186-24.185h-15.642c0,13.556-10.849,24.185-24.185,24.185c-13.336,0-24.186-10.629-24.186-24.185
	h-15.642c0,13.556-10.849,24.185-24.185,24.185c-13.336,0-24.186-10.629-24.186-24.185H152.21c0,13.556-10.849,24.185-24.185,24.185
	s-24.186-10.629-24.186-24.185H88.197c0,13.556-10.849,24.185-24.185,24.185s-24.186-10.629-24.186-24.185H24.185
	c0,13.208,6.506,25.042,16.483,32.361v256.486H56.31V214.461c2.493,0.497,5.068,0.765,7.703,0.765
	c13.1,0,24.744-6.142,32.006-15.935c7.263,9.794,18.905,16.149,32.006,16.149s24.744-6.357,32.006-16.15
	c7.263,9.794,18.905,16.149,32.006,16.149s24.744-6.359,32.006-16.15c7.263,9.793,18.906,16.148,32.007,16.148
	c13.1,0,24.744-6.36,32.006-16.154c7.263,9.794,18.905,16.143,32.006,16.143c13.1,0,24.744-6.37,32.006-16.163
	c7.263,9.794,18.905,16.123,32.006,16.123s24.744-6.41,32.006-16.204c7.263,9.794,18.905,16.042,32.006,16.042
	c2.97,0,5.86-0.342,8.647-0.97v249.776h15.642v-257.2C481.816,199.47,487.913,187.972,487.913,175.185z"/>
<rect x="8.342" y="152.244" width="495.316" height="15.642"/>
<path d="M327.883,423.482H72.194V247.81h255.688v175.672H327.883z M87.836,407.841h224.405V263.452H87.836V407.841z"/>
<polygon points="448.391,462.99 424.407,462.99 424.407,295.104 359.756,295.104 359.756,462.99 63.609,462.99 63.609,447.348 
	344.114,447.348 344.114,279.462 440.049,279.462 440.049,447.348 448.391,447.348 "/>
<rect x="368.098" y="383.739" width="15.642" height="15.642"/>
<rect x="344.114" y="248.179" width="95.935" height="15.642"/>
<path d="M491.63,143.902l-32.007-80.293h20.051V23.984H32.326v39.625h20.149L20.47,143.902H491.63z M166.454,63.609l-12.93,64.652
	h-47.136l19.396-64.652H166.454z M386.315,63.609l19.396,64.652h-47.136l-12.93-64.652H386.315z M329.693,63.609l12.93,64.652
	h-47.442l-6.465-64.652H329.693z M272.996,63.609l6.465,64.652h-46.823l6.465-64.652H272.996z M216.918,128.261h-47.442
	l12.93-64.652h40.978L216.918,128.261z M468.556,128.261h-46.515l-19.396-64.652h40.139L468.556,128.261z M47.967,47.967v-8.342
	h416.065v8.342H47.967z M69.314,63.609h40.139l-19.396,64.652H43.543L69.314,63.609z"/>
<rect x="128.209" y="297.01" transform="matrix(-0.7071 -0.7071 0.7071 -0.7071 6.1951 641.853)" width="15.641" height="45.266"/>
<rect x="148.208" y="316.039" transform="matrix(-0.7071 -0.7071 0.7071 -0.7071 14.8782 717.4526)" width="15.641" height="79.211"/>
<rect x="204.212" y="271.347" transform="matrix(-0.7071 -0.7071 0.7071 -0.7071 150.0882 661.442)" width="15.641" height="56.58"/>
<rect x="226.227" y="274.232" transform="matrix(-0.7071 -0.7071 0.7071 -0.7071 163.6265 735.0515)" width="15.641" height="118.812"/>
<rect x="240.202" y="372.332" transform="matrix(-0.707 -0.7072 0.7072 -0.707 152.0575 830.2931)" width="15.641" height="22.632"/>
</svg>