<?xml version="1.0" encoding="iso-8859-1"?>
<!-- Uploaded to: SVG Repo, www.svgrepo.com, Generator: SVG Repo Mixer Tools -->
<svg version="1.1" id="Layer_1" xmlns="http://www.w3.org/2000/svg" xmlns:xlink="http://www.w3.org/1999/xlink" 
	 viewBox="0 0 512 512" xml:space="preserve">
<rect x="47.173" y="147.215" style="fill:#CFDCE5;" width="417.404" height="355.917"/>
<path style="fill:#AEB6BA;" d="M464.577,112.924v120.231c-3.169,1.017-6.551,1.561-10.051,1.561
	c-18.292,0-33.109-14.828-33.109-33.109c0,9.14-3.713,17.417-9.696,23.412c-5.995,5.983-14.272,9.696-23.412,9.696
	c-18.292,0-33.109-14.828-33.109-33.109c0,9.14-3.713,17.417-9.696,23.412c-5.995,5.983-14.272,9.696-23.412,9.696
	c-18.292,0-33.109-14.828-33.109-33.109c0,9.14-3.713,17.417-9.696,23.412c-5.995,5.983-14.272,9.696-23.412,9.696
	c-18.292,0-33.109-14.828-33.109-33.109c0,9.14-3.713,17.417-9.696,23.412c-5.995,5.983-14.272,9.696-23.412,9.696
	c-18.292,0-33.109-14.828-33.109-33.109c0,9.14-3.713,17.417-9.696,23.412c-5.995,5.983-14.272,9.696-23.412,9.696
	c-18.292,0-33.109-14.828-33.109-33.109c0,9.14-3.713,17.417-9.696,23.412c-5.995,5.983-14.272,9.696-23.412,9.696
	c-3.512,0-6.882-0.544-10.051-1.561V112.924H464.577z"/>
<path style="fill:#CFDCE5;" d="M421.413,8.868h-66.217h-66.217h-66.217h-66.217H90.327H24.11v171.455
	c0,18.285,14.823,33.109,33.109,33.109l0,0c18.285,0,33.109-14.823,33.109-33.109c0,18.285,14.823,33.109,33.109,33.109l0,0
	c18.285,0,33.109-14.823,33.109-33.109c0,18.285,14.823,33.109,33.109,33.109l0,0c18.285,0,33.109-14.823,33.109-33.109
	c0,18.285,14.823,33.109,33.109,33.109l0,0c18.285,0,33.109-14.823,33.109-33.109c0,18.285,14.823,33.109,33.109,33.109l0,0
	c18.285,0,33.109-14.823,33.109-33.109c0,18.285,14.823,33.109,33.109,33.109l0,0c18.285,0,33.109-14.823,33.109-33.109
	c0,18.285,14.823,33.109,33.109,33.109l0,0c18.285,0,33.109-14.823,33.109-33.109V8.868H421.413z"/>
<g>
	<path style="fill:#FF6F52;" d="M156.544,8.868H90.327v171.455c0,18.285,14.823,33.109,33.109,33.109l0,0
		c18.285,0,33.109-14.823,33.109-33.109V8.868z"/>
	<path style="fill:#FF6F52;" d="M288.978,8.868h-66.217v171.455c0,18.285,14.823,33.109,33.109,33.109l0,0
		c18.285,0,33.109-14.823,33.109-33.109V8.868z"/>
	<path style="fill:#FF6F52;" d="M421.413,8.868h-66.217v171.455c0,18.285,14.823,33.109,33.109,33.109l0,0
		c18.285,0,33.109-14.823,33.109-33.109V8.868z"/>
</g>
<rect x="85.011" y="246.54" style="fill:#4EBFED;" width="202.199" height="215.206"/>
<polygon style="fill:#92DDF4;" points="287.21,246.54 287.21,461.746 180.423,461.746 226.135,246.54 "/>
<rect x="325.043" y="270.189" style="fill:#DCE8EF;" width="107.91" height="232.942"/>
<rect x="354.604" y="299.751" style="fill:#4EBFED;" width="48.788" height="173.82"/>
<path d="M487.76,0H24.24c-4.898,0-8.868,3.971-8.868,8.868v171.455c0,16.344,9.395,30.525,23.061,37.455v285.353
	c0,4.898,3.971,8.868,8.868,8.868h417.404c4.898,0,8.868-3.971,8.868-8.868V217.775c13.663-6.932,23.054-21.111,23.054-37.452V8.868
	C496.628,3.971,492.658,0,487.76,0z M346.457,180.323c0,13.366-10.874,24.24-24.24,24.24c-13.366,0-24.24-10.874-24.24-24.24V17.737
	h48.48V180.323z M280.24,180.323c0,13.366-10.874,24.24-24.24,24.24s-24.24-10.874-24.24-24.24V17.737h48.48V180.323z
	 M156.674,133.617c4.898,0,8.868-3.971,8.868-8.868V17.737h48.48v162.587c0,13.366-10.874,24.24-24.24,24.24
	s-24.24-10.874-24.24-24.24v-27.196c0-4.898-3.971-8.868-8.868-8.868c-4.898,0-8.868,3.971-8.868,8.868v27.196
	c0,13.366-10.874,24.24-24.24,24.24s-24.24-10.874-24.24-24.24V17.737h48.48v107.012
	C147.806,129.646,151.777,133.617,156.674,133.617z M33.109,17.737h48.48v162.587c0,13.366-10.874,24.24-24.24,24.24
	s-24.24-10.874-24.24-24.24V17.737z M455.837,494.263h-13.884V348.231c0-4.898-3.971-8.868-8.868-8.868
	c-4.898,0-8.868,3.971-8.868,8.868v146.032h-90.171V279.058h90.171v39.612c0,4.898,3.971,8.868,8.868,8.868
	c4.898,0,8.868-3.971,8.868-8.868v-48.48c0-4.898-3.971-8.868-8.868-8.868H325.177c-4.898,0-8.868,3.971-8.868,8.868v224.074H56.17
	V222.271c0.394,0.011,0.784,0.03,1.179,0.03c13.442,0,25.42-6.359,33.109-16.218c7.688,9.859,19.666,16.218,33.109,16.218
	s25.42-6.359,33.109-16.218c7.688,9.859,19.666,16.218,33.109,16.218s25.42-6.359,33.109-16.218
	C230.58,215.941,242.558,222.3,256,222.3c13.442,0,25.42-6.359,33.109-16.218c7.688,9.859,19.666,16.218,33.109,16.218
	c13.442,0,25.42-6.359,33.109-16.218c7.688,9.859,19.666,16.218,33.109,16.218s25.42-6.359,33.109-16.218
	c7.688,9.859,19.666,16.218,33.109,16.218c0.397,0,0.791-0.019,1.186-0.03V494.263z M478.891,180.323
	c0,13.366-10.874,24.24-24.24,24.24c-13.366,0-24.24-10.874-24.24-24.24V75.92c0-4.898-3.971-8.868-8.868-8.868
	s-8.868,3.971-8.868,8.868v104.403c0,13.366-10.874,24.24-24.24,24.24c-13.366,0-24.24-10.874-24.24-24.24V17.737h48.48V47.54
	c0,4.898,3.971,8.868,8.868,8.868s8.868-3.971,8.868-8.868V17.737h48.48V180.323z"/>
<path d="M287.338,237.672H85.14c-4.898,0-8.868,3.971-8.868,8.868v44.933c0,4.898,3.971,8.868,8.868,8.868
	c4.898,0,8.868-3.971,8.868-8.868v-36.065H278.47v197.469H94.008V321.035c0-4.898-3.971-8.868-8.868-8.868
	c-4.898,0-8.868,3.971-8.868,8.868v140.711c0,4.898,3.971,8.868,8.868,8.868h202.199c4.898,0,8.868-3.971,8.868-8.868V246.54
	C296.207,241.643,292.237,237.672,287.338,237.672z"/>
<path d="M403.523,290.882h-48.785c-4.898,0-8.868,3.971-8.868,8.868v173.82c0,4.898,3.971,8.868,8.868,8.868h48.785
	c4.898,0,8.868-3.971,8.868-8.868v-173.82C412.392,294.853,408.421,290.882,403.523,290.882z M363.606,351.187h31.049v26.605
	h-31.049V351.187z M363.606,395.529h31.049v26.605h-31.049V395.529z M394.655,308.619v24.831h-31.049v-24.831H394.655z
	 M363.606,464.702v-24.831h31.049v24.831H363.606z"/>
</svg>