<svg width="20" height="18" viewBox="0 0 20 18" fill="none" xmlns="http://www.w3.org/2000/svg">
<path d="M7.86258 2.53491C8.54606 0.493267 11.4539 0.493266 12.1374 2.53491C12.7083 4.24022 14.3083 5.40122 16.1121 5.40122H16.2758C18.3615 5.40122 19.2119 8.08283 17.5074 9.28477C16.0126 10.3389 15.3904 12.2521 15.97 13.9834C16.6397 15.9841 14.3697 17.6602 12.67 16.4617L12.4525 16.3083C10.9819 15.2712 9.01806 15.2712 7.54748 16.3083L7.32996 16.4617C5.63031 17.6602 3.36026 15.9841 4.03004 13.9834C4.60961 12.2521 3.98742 10.3389 2.49258 9.28477C0.788109 8.08283 1.63852 5.40122 3.72416 5.40122H3.88789C5.69172 5.40122 7.29171 4.24022 7.86258 2.53491Z" fill="#FEBD51" stroke="#273443" stroke-width="2"/>
</svg>
