<svg width="1172" height="2345" viewBox="0 0 1172 2345" fill="none" xmlns="http://www.w3.org/2000/svg">
<path d="M-0.500014 0C310.466 -3.70824e-06 608.696 123.531 828.583 343.417C1048.47 563.304 1172 861.534 1172 1172.5C1172 1483.47 1048.47 1781.7 828.583 2001.58C608.696 2221.47 310.467 2345 -0.499809 2345L-0.5 1172.5L-0.500014 0Z" fill="#273443"/>
<path d="M-6.00001 31C296.877 31 587.349 151.317 801.516 365.484C1015.68 579.651 1136 870.123 1136 1173C1136 1475.88 1015.68 1766.35 801.516 1980.52C587.35 2194.68 296.877 2315 -5.99981 2315L-6 1173L-6.00001 31Z" fill="#FBFBFB"/>
</svg>
