<svg width="38" height="36" viewBox="0 0 38 36" fill="none" xmlns="http://www.w3.org/2000/svg">
<path fill-rule="evenodd" clip-rule="evenodd" d="M10.0986 3.95054e-05C8.59678 -0.000410495 7.56627 -0.000710413 6.65037 0.222473C4.72735 0.691073 3.11858 1.86341 2.2245 3.44766C1.79867 4.20222 1.5969 5.10051 1.30287 6.40961L0.141116 11.5732C-0.293134 13.5032 0.301897 15.3698 1.55413 16.7693V21.3441C1.5541 24.4071 1.55408 26.8331 1.84125 28.7318C2.13681 30.6858 2.75953 32.2674 4.16271 33.5146C5.56588 34.7619 7.34517 35.3154 9.54345 35.5783C11.6795 35.8334 14.4088 35.8334 17.8547 35.8334H19.9412C23.3869 35.8334 26.1163 35.8334 28.2523 35.5783C30.4506 35.3154 32.2299 34.7619 33.633 33.5146C35.0363 32.2674 35.6589 30.6858 35.9544 28.7318C36.2417 26.8331 36.2417 24.4071 36.2417 21.3441V16.7693C37.4938 15.3698 38.0889 13.5032 37.6547 11.5732L36.4929 6.40961C36.1989 5.10051 35.9972 4.20222 35.5714 3.44766C34.6772 1.86341 33.0684 0.691073 31.1454 0.222473C30.2295 -0.000710413 29.199 -0.000410495 27.6971 3.95054e-05H10.0986ZM30.6512 19.1668C31.6429 19.1668 32.58 18.9893 33.4292 18.6708V21.2501C33.4292 24.4281 33.4262 26.6859 33.1671 28.3986C32.9134 30.0754 32.4379 31.0416 31.6444 31.7469C30.8509 32.4523 29.7639 32.8751 27.8775 33.1004C27.0422 33.2003 26.0918 33.2574 24.9917 33.2899V28.6964C24.9917 27.9634 24.9917 27.3311 24.9388 26.8123C24.8828 26.2638 24.759 25.7204 24.4264 25.2084C24.0561 24.6383 23.5236 24.1649 22.8823 23.8358C22.3063 23.5403 21.6951 23.4301 21.0778 23.3804C20.4941 23.3334 19.7829 23.3334 18.9583 23.3334H18.8374C18.0129 23.3334 17.3016 23.3334 16.7179 23.3804C16.1006 23.4301 15.4896 23.5403 14.9135 23.8358C14.2722 24.1649 13.7396 24.6383 13.3693 25.2084C13.0368 25.7204 12.9129 26.2638 12.857 26.8123C12.8041 27.3311 12.8041 27.9634 12.8041 28.6964V33.2899C11.704 33.2574 10.7535 33.2003 9.91823 33.1004C8.03181 32.8751 6.94497 32.4523 6.15145 31.7469C5.35793 31.0416 4.8823 30.0754 4.62868 28.3986C4.36962 26.6859 4.36663 24.4281 4.36663 21.2501V18.6706C5.21577 18.9893 6.15289 19.1668 7.14454 19.1668C9.53312 19.1668 11.6687 18.1194 12.9692 16.4931C14.2996 18.1066 16.4475 19.1668 18.8976 19.1668C21.3476 19.1668 23.4958 18.1064 24.8261 16.4926C26.1266 18.1193 28.2624 19.1668 30.6512 19.1668ZM15.6167 33.3301C16.3449 33.3333 17.1244 33.3334 17.9604 33.3334H19.8354C20.6715 33.3334 21.4509 33.3333 22.1792 33.3301V28.7501C22.1792 27.9483 22.1777 27.4304 22.1378 27.0379C22.0995 26.6628 22.035 26.5266 21.9908 26.4584C21.8674 26.2684 21.6898 26.1106 21.4761 26.0009C21.3994 25.9616 21.2462 25.9043 20.8239 25.8701C20.3826 25.8346 19.8 25.8334 18.8979 25.8334C17.9959 25.8334 17.4133 25.8346 16.9718 25.8701C16.5497 25.9043 16.3963 25.9616 16.3198 26.0009C16.1061 26.1106 15.9285 26.2684 15.8049 26.4584C15.7609 26.5266 15.6962 26.6628 15.6579 27.0379C15.618 27.4304 15.6167 27.9483 15.6167 28.7501V33.3301ZM12.6561 2.50009H10.3061C8.51648 2.50009 7.89668 2.51101 7.39393 2.63352C6.24013 2.91467 5.27487 3.61807 4.73843 4.56864C4.50469 4.98281 4.37108 5.52091 4.02012 7.08077L2.899 12.0635C2.36318 14.4449 4.41235 16.6668 7.14454 16.6668C9.36887 16.6668 11.2313 15.1686 11.4527 13.2012L11.5813 12.058L11.5887 11.988L12.6561 2.50009ZM14.3815 12.2918L15.483 2.50009H22.3123L23.4077 12.2367C23.6745 14.6086 21.5792 16.6668 18.8976 16.6668C16.2366 16.6668 14.1529 14.6403 14.3815 12.2918ZM30.4018 2.63352C29.8991 2.51101 29.2793 2.50009 27.4898 2.50009H25.1393L26.3432 13.2012C26.5644 15.1686 28.4269 16.6668 30.6512 16.6668C33.3834 16.6668 35.4326 14.4449 34.8968 12.0635L33.7757 7.08077C33.4247 5.52091 33.2912 4.98281 33.0574 4.56864C32.5209 3.61807 31.5557 2.91467 30.4018 2.63352Z" fill="#4E2A07"/>
</svg>
