<svg width="49" height="43" viewBox="0 0 49 43" fill="none" xmlns="http://www.w3.org/2000/svg">
<path d="M7.71228 6.54891C7.34266 7.1955 7.16087 7.99315 6.79729 9.58845L5.57653 14.9448C4.80358 18.3364 7.75963 21.5007 11.701 21.5007C14.9097 21.5007 17.5964 19.367 17.9157 16.5651L18.0566 15.3286C17.7236 18.6408 20.6985 21.5007 24.4986 21.5007C28.3245 21.5007 31.3141 18.6017 30.9334 15.2609L31.0824 16.5651C31.4017 19.367 34.0884 21.5007 37.2972 21.5007C41.2385 21.5007 44.1946 18.3364 43.4216 14.9448L42.2009 9.58845C41.8373 7.99319 41.6554 7.1955 41.2858 6.54891C40.5069 5.18643 39.1055 4.17824 37.4304 3.77524C36.6353 3.58398 35.7084 3.58398 33.8546 3.58398H29.6028H15.1435C13.2897 3.58398 12.3627 3.58398 11.5677 3.77524C9.89254 4.17824 8.49112 5.18643 7.71228 6.54891Z" fill="#4E2A07"/>
<path d="M37.2969 24.187C38.9651 24.187 40.5152 23.8065 41.8529 23.1459V25.0829C41.8529 31.8396 41.8529 35.218 39.4609 37.3171C37.5354 39.0068 34.6654 39.3363 29.6029 39.4006V33.1454C29.6029 31.4709 29.6029 30.6336 29.1925 30.0099C28.9238 29.6014 28.5371 29.2621 28.0716 29.0263C27.3609 28.6662 26.4068 28.6662 24.4987 28.6662C22.5906 28.6662 21.6365 28.6662 20.9258 29.0263C20.4603 29.2621 20.0736 29.6014 19.8048 30.0099C19.3945 30.6336 19.3945 31.4709 19.3945 33.1454V39.4006C14.3321 39.3363 11.462 39.0068 9.53649 37.3171C7.14453 35.218 7.14453 31.8396 7.14453 25.0829V23.1459C8.48231 23.8065 10.0322 24.187 11.7007 24.187C14.1447 24.187 16.3855 23.3564 18.0559 21.9867C19.7451 23.3487 22.0007 24.187 24.4983 24.187C26.9961 24.187 29.2519 23.3485 30.9412 21.9863C32.6117 23.3562 34.8526 24.187 37.2969 24.187Z" fill="#4E2A07"/>
</svg>
