<svg width="52" height="49" viewBox="0 0 52 49" fill="none" xmlns="http://www.w3.org/2000/svg">
<g clip-path="url(#clip0_639_64)">
<path d="M12.559 17.0664C16.2414 17.0664 19.5681 14.6493 20.7061 11.1472C22.3525 6.07995 29.6475 6.07995 31.2939 11.1472C32.4319 14.6493 35.7586 17.0664 39.441 17.0664C44.769 17.0664 47.0233 24.0043 42.7129 27.136C39.7337 29.3005 38.463 33.2113 39.601 36.7135C41.2474 41.7807 35.3456 46.0686 31.0352 42.9369C28.056 40.7724 23.944 40.7724 20.9648 42.9369C16.6544 46.0686 10.7526 41.7807 12.399 36.7135C13.537 33.2113 12.2663 29.3005 9.28713 27.136C4.97671 24.0043 7.23098 17.0664 12.559 17.0664Z" fill="#4E2A07" stroke="#4E2A07" stroke-width="3"/>
</g>
<defs>
<clipPath id="clip0_639_64">
<rect width="52" height="49" fill="white"/>
</clipPath>
</defs>
</svg>
