<svg width="42" height="41" viewBox="0 0 42 41" fill="none" xmlns="http://www.w3.org/2000/svg">
<path d="M7.55896 12.0664C11.2414 12.0664 14.5681 9.64935 15.7061 6.14716C17.3525 1.07995 24.6475 1.07995 26.2939 6.14716C27.4319 9.64935 30.7586 12.0664 34.441 12.0664C39.769 12.0664 42.0233 19.0043 37.7129 22.136C34.7337 24.3005 33.463 28.2113 34.601 31.7135C36.2474 36.7807 30.3456 41.0686 26.0352 37.9369C23.056 35.7724 18.944 35.7724 15.9648 37.9369C11.6544 41.0686 5.75261 36.7807 7.39905 31.7135C8.53698 28.2113 7.26628 24.3005 4.28713 22.136C-0.0232925 19.0043 2.23098 12.0664 7.55896 12.0664Z" stroke="#4E2A07" stroke-width="3"/>
</svg>
