<svg width="64" height="61" viewBox="0 0 64 61" fill="none" xmlns="http://www.w3.org/2000/svg">
<path opacity="0.5" d="M25.3426 5.48936C27.4381 -0.959812 36.5619 -0.959819 38.6574 5.48936L41.2051 13.3303C42.1422 16.2145 44.8299 18.1672 47.8625 18.1672H56.1069C62.888 18.1672 65.7074 26.8445 60.2214 30.8303L53.5515 35.6763C51.0981 37.4588 50.0715 40.6184 51.0086 43.5025L53.5563 51.3434C55.6518 57.7926 48.2704 63.1555 42.7844 59.1697L36.1145 54.3237C33.6611 52.5412 30.3389 52.5412 27.8855 54.3237L21.2156 59.1697C15.7296 63.1555 8.34824 57.7926 10.4437 51.3435L12.9914 43.5025C13.9285 40.6184 12.9019 37.4588 10.4485 35.6763L3.77858 30.8303C-1.70741 26.8445 1.11201 18.1672 7.89308 18.1672H16.1375C19.1701 18.1672 21.8578 16.2145 22.7949 13.3303L25.3426 5.48936Z" fill="#C7C2BA"/>
</svg>
